# Blender 4.2.0
# www.blender.org
mtllib dumbell_2.mtl
o dumbell_shape
v 0.150000 -0.250000 0.250000
v 0.650000 -0.250000 0.250000
v 0.150000 0.050000 0.250000
v 0.650000 0.250000 0.250000
v -0.150000 0.050000 0.250000
v -0.650000 0.250000 0.250000
v -0.150000 -0.250000 0.250000
v -0.650000 -0.250000 0.250000
v -0.150000 -0.250000 -0.250000
v -0.650000 -0.250000 -0.250000
v -0.150000 0.050000 -0.250000
v -0.650000 0.250000 -0.250000
v 0.150000 0.050000 -0.250000
v 0.650000 0.250000 -0.250000
v 0.150000 -0.250000 -0.250000
v 0.650000 -0.250000 -0.250000
v -0.150000 -0.250000 0.200000
v 0.150000 -0.250000 0.200000
v -0.150000 -0.250000 -0.200000
v 0.150000 -0.250000 -0.200000
v -0.150000 0.050000 -0.200000
v 0.150000 0.050000 -0.200000
v 0.150000 0.050000 0.200000
v -0.150000 0.050000 0.200000
vn -0.0000 -0.0000 1.0000
vn -0.0000 -0.0000 -1.0000
vn -0.0000 -1.0000 -0.0000
vn -1.0000 -0.0000 -0.0000
vn -0.0000 1.0000 -0.0000
vn 1.0000 -0.0000 -0.0000
s 0
f 1//1 2//1 3//1
f 3//1 2//1 4//1
f 3//1 4//1 5//1
f 5//1 4//1 6//1
f 5//1 6//1 7//1
f 7//1 6//1 8//1
f 9//2 10//2 11//2
f 11//2 10//2 12//2
f 11//2 12//2 13//2
f 13//2 12//2 14//2
f 13//2 14//2 15//2
f 15//2 14//2 16//2
f 17//3 7//3 8//3
f 2//3 1//3 16//3
f 16//3 1//3 18//3
f 10//3 9//3 19//3
f 15//3 16//3 20//3
f 20//3 16//3 18//3
f 20//3 18//3 19//3
f 19//3 18//3 17//3
f 19//3 17//3 10//3
f 10//3 17//3 8//3
f 10//4 8//4 12//4
f 12//4 8//4 6//4
f 14//5 12//5 4//5
f 4//5 12//5 6//5
f 11//6 21//6 9//6
f 9//6 21//6 19//6
f 21//2 22//2 19//2
f 19//2 22//2 20//2
f 22//3 21//3 13//3
f 13//3 21//3 11//3
f 23//1 24//1 18//1
f 18//1 24//1 17//1
f 24//6 5//6 17//6
f 17//6 5//6 7//6
f 3//3 5//3 23//3
f 23//3 5//3 24//3
f 2//6 16//6 4//6
f 4//6 16//6 14//6
f 22//4 13//4 20//4
f 20//4 13//4 15//4
f 3//4 23//4 1//4
f 1//4 23//4 18//4
